HIERARCHY
ROOT Pelvis
{
	OFFSET 0.000000 0.000000 0.000000
	CHANNELS 6 Xposition Yposition Zposition Xrotation Yrotation Zrotation
	JOINT LeftUpLeg_virtual
	{
		OFFSET 0.000000 0.000000 0.000000
		CHANNELS 3 Xrotation Yrotation Zrotation
		JOINT LeftUpLeg
		{
			OFFSET 18.735201 -5.666702 -4.541200
			CHANNELS 3 Xrotation Yrotation Zrotation
			JOINT LeftLeg
			{
				OFFSET -0.021200 -31.938179 0.493100
				CHANNELS 3 Xrotation Yrotation Zrotation
				JOINT LeftFoot
				{
					OFFSET 0.021200 -31.938179 -4.336299
					CHANNELS 3 Xrotation Yrotation Zrotation
					JOINT LeftToeBase
					{
						OFFSET 0.943001 -26.722000 15.023500
						CHANNELS 3 Xrotation Yrotation Zrotation
						End Site
						{
							OFFSET 0 0 0
						}
					}
				}
			}
		}
	}
	JOINT RightUpLeg_virtual
	{
		OFFSET 0.000000 0.000000 0.000000
		CHANNELS 3 Xrotation Yrotation Zrotation
		JOINT RightUpLeg
		{
			OFFSET -18.735201 -5.666702 -4.541200
			CHANNELS 3 Xrotation Yrotation Zrotation
			JOINT RightLeg
			{
				OFFSET 0.018946 -31.938133 0.493100
				CHANNELS 3 Xrotation Yrotation Zrotation
				JOINT RightFoot
				{
					OFFSET -0.018946 -31.938126 -4.336299
					CHANNELS 3 Xrotation Yrotation Zrotation
					JOINT RightToeBase
					{
						OFFSET -0.943001 -26.722004 15.023500
						CHANNELS 3 Xrotation Yrotation Zrotation
						End Site
						{
							OFFSET 0 0 0
						}
					}
				}
			}
		}
	}
	JOINT Hips_virtual
	{
		OFFSET 0.000000 0.000000 0.000000
		CHANNELS 3 Xrotation Yrotation Zrotation
		JOINT Hips
		{
			OFFSET -0.000000 -0.000000 -0.000000
			CHANNELS 3 Xrotation Yrotation Zrotation
			JOINT Spine
			{
				OFFSET 0.000000 10.199997 -0.299500
				CHANNELS 3 Xrotation Yrotation Zrotation
				JOINT Spine1
				{
					OFFSET 0.000000 11.900002 -1.516600
					CHANNELS 3 Xrotation Yrotation Zrotation
					JOINT Spine2
					{
						OFFSET 0.000000 13.600006 -2.842500
						CHANNELS 3 Xrotation Yrotation Zrotation
						JOINT Neck_virtual
						{
							OFFSET 0.000000 0.000000 0.000000
							CHANNELS 3 Xrotation Yrotation Zrotation
							JOINT Neck
							{
								OFFSET 0.000000 9.624100 -2.890100
								CHANNELS 3 Xrotation Yrotation Zrotation
								JOINT Head
								{
									OFFSET 0.000000 14.068802 -1.351900
									CHANNELS 3 Xrotation Yrotation Zrotation
									End Site
									{
										OFFSET 0 0 0
									}
								}
							}
						}
						JOINT LeftShoulder_virtual
						{
							OFFSET 0.000000 0.000000 0.000000
							CHANNELS 3 Xrotation Yrotation Zrotation
							JOINT LeftShoulder
							{
								OFFSET 15.263000 10.923401 -0.547700
								CHANNELS 3 Xrotation Yrotation Zrotation
								JOINT LeftArm
								{
									OFFSET 25.438599 -2.830597 -13.032500
									CHANNELS 3 Xrotation Yrotation Zrotation
									JOINT LeftForeArm
									{
										OFFSET 29.960503 0.000000 0.000000
										CHANNELS 3 Xrotation Yrotation Zrotation
										JOINT LeftHand
										{
											OFFSET 27.849251 0.000000 0.000000
											CHANNELS 3 Xrotation Yrotation Zrotation
											End Site
											{
												OFFSET 0 0 0
											}
										}
									}
								}
							}
						}
						JOINT RightShoulder_virtual
						{
							OFFSET 0.000000 0.000000 0.000000
							CHANNELS 3 Xrotation Yrotation Zrotation
							JOINT RightShoulder
							{
								OFFSET -15.263000 10.923401 -0.547700
								CHANNELS 3 Xrotation Yrotation Zrotation
								JOINT RightArm
								{
									OFFSET -25.438599 -2.830597 -13.032500
									CHANNELS 3 Xrotation Yrotation Zrotation
									JOINT RightForeArm
									{
										OFFSET -29.960503 0.000000 0.000000
										CHANNELS 3 Xrotation Yrotation Zrotation
										JOINT RightHand
										{
											OFFSET -27.849251 0.000000 0.000000
											CHANNELS 3 Xrotation Yrotation Zrotation
											End Site
											{
												OFFSET 0 0 0
											}
										}
									}
								}
							}
						}
					}
				}
			}
		}
	}
}
MOTION
Frames: 6
Frame Time: 0.03333333
-0.194889 92.706314 2.462246 0.000000 0.000000 0.000000 -24.519766 -2.732001 -1.139353 7.964066 20.948231 5.462258 36.720436 5.327068 -10.189667 -25.315492 28.903742 9.728956 0.000000 0.000000 0.000000 -24.519766 -2.732001 -1.139353 27.308548 -15.331285 0.855835 25.070401 -10.490383 0.074617 -24.951265 -28.332014 0.650324 0.000000 0.000000 0.000000 -24.519766 -2.732001 -1.139353 0.000001 0.000000 0.000000 11.143632 -4.581596 -1.265095 3.545658 -2.400647 -0.151373 0.000000 0.000000 0.000000 3.557021 -2.388380 -0.108336 0.618092 0.256542 -0.523029 0.000000 0.000000 0.000000 3.557021 -2.388380 -0.108336 0.445072 -15.488175 -11.025448 -20.285399 3.054801 -36.773557 0.000027 -67.201938 0.000039 0.000000 0.000000 0.000000 3.557021 -2.388380 -0.108336 0.064830 14.691505 14.953769 -12.069988 -6.923741 61.446629 -0.000006 39.415430 0.000013 0.000000 0.000000 0.000000 
-0.648636 92.715714 2.682772 0.000000 0.000000 0.000000 -24.544660 -3.702684 -1.575600 6.486841 21.343687 6.826476 38.921174 5.382283 -10.141619 -24.257835 29.095165 8.772350 0.000000 0.000000 0.000000 -24.544660 -3.702684 -1.575600 27.377719 -14.942905 0.996115 24.969981 -10.342948 0.150533 -25.166290 -27.758959 0.298669 0.000000 0.000000 0.000000 -24.544660 -3.702684 -1.575600 0.000000 0.000000 0.000000 11.143064 -4.581159 -1.272001 3.545658 -2.400647 -0.151373 0.000000 0.000000 0.000000 3.557021 -2.388382 -0.108336 0.625116 0.255938 -0.512152 0.000000 0.000000 0.000000 3.557021 -2.388382 -0.108336 0.453286 -15.502117 -10.972479 -20.293312 3.094331 -36.833626 -0.000002 -67.199335 0.000003 0.000000 0.000000 0.000000 3.557021 -2.388382 -0.108336 0.059575 14.649712 15.003830 -12.024881 -6.807496 61.377651 -0.000004 39.437014 0.000018 0.000000 0.000000 0.000000 
-1.078791 92.724548 2.875820 0.000000 0.000000 0.000000 -24.577288 -4.677320 -2.017745 4.686992 21.687782 8.291914 41.348012 5.433053 -10.081239 -22.944716 29.232363 8.129557 0.000000 0.000000 0.000000 -24.577288 -4.677320 -2.017745 27.392656 -14.563188 1.104574 24.923268 -10.256925 0.213169 -25.341061 -27.120755 0.017689 0.000000 0.000000 0.000000 -24.577288 -4.677320 -2.017745 0.000000 0.000000 0.000000 11.142702 -4.582490 -1.276503 3.545659 -2.400646 -0.151372 0.000000 0.000000 0.000000 3.557023 -2.388382 -0.108336 0.635371 0.254229 -0.500853 0.000000 0.000000 0.000000 3.557023 -2.388382 -0.108336 0.460828 -15.508030 -10.923491 -20.284320 3.109530 -36.878930 0.000085 -67.192874 0.000093 0.000000 0.000000 0.000000 3.557023 -2.388382 -0.108336 0.056287 14.633621 15.032355 -11.965736 -6.692803 61.317156 -0.000024 39.454072 0.000038 0.000000 0.000000 0.000000 
-1.551298 92.723671 3.094666 0.000000 0.000000 0.000000 -24.617784 -5.656249 -2.466314 2.663904 21.929349 9.881503 43.867184 5.445725 -9.985130 -21.377001 29.330875 7.753259 0.000000 0.000000 0.000000 -24.617784 -5.656249 -2.466314 27.470517 -14.195805 1.257823 24.834657 -10.216683 0.254758 -25.524412 -26.430353 -0.242600 0.000000 0.000000 0.000000 -24.617784 -5.656249 -2.466314 0.000000 0.000000 0.000000 11.142516 -4.584998 -1.278401 3.545659 -2.400647 -0.151372 0.000000 0.000000 0.000000 3.557023 -2.388380 -0.108335 0.646641 0.251156 -0.488362 0.000000 0.000000 0.000000 3.557023 -2.388380 -0.108335 0.467433 -15.512265 -10.880578 -20.273861 3.119681 -36.916913 -0.000007 -67.186679 -0.000005 0.000000 0.000000 0.000000 3.557023 -2.388380 -0.108335 0.054409 14.630955 15.046422 -11.904866 -6.587384 61.267357 -0.000014 39.465728 0.000019 0.000000 0.000000 0.000000 
-1.995152 92.716705 3.299372 0.000000 0.000000 0.000000 -24.666243 -6.637063 -2.924287 0.556300 22.049517 11.443804 46.222130 5.414577 -9.810947 -19.597136 29.390495 7.655514 0.000000 0.000000 0.000000 -24.666243 -6.637063 -2.924287 27.503340 -13.843792 1.379846 24.805256 -10.195210 0.279134 -25.686682 -25.710529 -0.440625 0.000000 0.000000 0.000000 -24.666243 -6.637063 -2.924287 0.000002 0.000000 0.000000 11.142812 -4.590364 -1.274557 3.545659 -2.400645 -0.151373 0.000000 0.000000 0.000000 3.557022 -2.388383 -0.108336 0.657524 0.245896 -0.473604 0.000000 0.000000 0.000000 3.557022 -2.388383 -0.108336 0.472354 -15.517857 -10.848853 -20.272645 3.135297 -36.949223 0.000044 -67.183517 0.000040 0.000000 0.000000 0.000000 3.557022 -2.388383 -0.108336 0.054214 14.638965 15.044543 -11.849491 -6.498832 61.233957 -0.000009 39.468863 0.000009 0.000000 0.000000 0.000000 
-2.402823 92.706993 3.493795 0.000000 0.000000 0.000000 -24.722823 -7.620772 -3.390647 -1.454435 22.008514 12.867500 48.202738 5.297854 -9.530462 -17.689956 29.461345 7.682114 0.000000 0.000000 0.000000 -24.722823 -7.620772 -3.390647 27.496535 -13.518130 1.458463 24.823242 -10.171754 0.292728 -25.823989 -24.966117 -0.581811 0.000000 0.000000 0.000000 -24.722823 -7.620772 -3.390647 -0.000001 0.000000 0.000000 11.143449 -4.597646 -1.266437 3.545658 -2.400646 -0.151372 0.000000 0.000000 0.000000 3.557021 -2.388382 -0.108335 0.666827 0.238167 -0.456353 0.000000 0.000000 0.000000 3.557021 -2.388382 -0.108335 0.474820 -15.527631 -10.833579 -20.292108 3.167166 -36.977947 -0.000013 -67.186044 0.000008 0.000000 0.000000 0.000000 3.557021 -2.388382 -0.108335 0.055756 14.652723 15.027639 -11.806458 -6.432302 61.220796 0.000002 39.461415 -0.000022 0.000000 0.000000 0.000000 
